<?xml version="1.0" standalone="no"?>
<!DOCTYPE svg PUBLIC "-//W3C//DTD SVG 20010904//EN"
 "http://www.w3.org/TR/2001/REC-SVG-20010904/DTD/svg10.dtd">
<svg version="1.0" xmlns="http://www.w3.org/2000/svg"
 width="1024.000000pt" height="1024.000000pt" viewBox="0 0 1024.000000 1024.000000"
 preserveAspectRatio="xMidYMid meet">
<metadata>
Created by potrace 1.11, written by Peter Selinger 2001-2013
</metadata>
<g transform="translate(0.000000,1024.000000) scale(0.100000,-0.100000)"
fill="#000000" stroke="none">
<path d="M505 10230 c-209 -42 -390 -201 -474 -418 l-26 -67 0 -4625 0 -4625
26 -67 c74 -190 207 -323 397 -397 l67 -26 4625 0 4625 0 67 26 c190 74 323
207 397 397 l26 67 0 4625 0 4625 -26 67 c-74 190 -207 323 -397 397 l-67 26
-4600 1 c-2530 1 -4618 -2 -4640 -6z m2585 -2220 l0 -180 -467 -2 -468 -3 -3
-467 -2 -468 -180 0 -180 0 0 650 0 650 650 0 650 0 0 -180z m3200 -2885 l0
-1445 840 0 840 0 0 -120 0 -120 -985 0 -985 0 0 1565 0 1565 145 0 145 0 0
-1445z m-1652 1425 c390 -42 652 -223 746 -515 63 -200 61 -494 -6 -672 -50
-135 -189 -290 -335 -373 -99 -57 -268 -113 -423 -141 -115 -21 -164 -23 -592
-27 l-468 -4 0 -694 0 -694 -145 0 -145 0 0 1565 0 1565 635 0 c372 0 676 -4
733 -10z m-2486 -3717 l3 -468 468 -3 467 -2 0 -180 0 -180 -650 0 -650 0 0
650 0 650 180 0 180 0 2 -467z"/>
<path d="M3560 5690 l0 -630 368 0 c571 0 753 20 918 100 204 99 295 265 295
540 1 199 -38 309 -150 421 -112 112 -263 169 -507 189 -65 5 -300 10 -521 10
l-403 0 0 -630z"/>
</g>
</svg>
